<mxfile host="app.diagrams.net" agent="Mozilla/5.0 (Windows NT 10.0; Win64; x64) AppleWebKit/537.36 (KHTML, like Gecko) Chrome/131.0.0.0 Safari/537.36" version="26.0.6">
  <diagram name="페이지-1" id="Ya6khYZ0Fk8NMJqVSXsF">
    <mxGraphModel dx="667" dy="344" grid="1" gridSize="10" guides="1" tooltips="1" connect="1" arrows="1" fold="1" page="1" pageScale="1" pageWidth="827" pageHeight="1169" math="0" shadow="0">
      <root>
        <mxCell id="0" />
        <mxCell id="1" parent="0" />
        <mxCell id="XMlplPwFl1dJo5Iw-d_0-1" value="Entity" style="whiteSpace=wrap;html=1;align=center;" vertex="1" parent="1">
          <mxGeometry x="130" y="30" width="100" height="40" as="geometry" />
        </mxCell>
        <mxCell id="XMlplPwFl1dJo5Iw-d_0-2" value="Relationship" style="shape=rhombus;perimeter=rhombusPerimeter;whiteSpace=wrap;html=1;align=center;" vertex="1" parent="1">
          <mxGeometry x="250" y="20" width="120" height="60" as="geometry" />
        </mxCell>
        <mxCell id="XMlplPwFl1dJo5Iw-d_0-3" value="Attribute" style="ellipse;whiteSpace=wrap;html=1;align=center;" vertex="1" parent="1">
          <mxGeometry x="390" y="30" width="100" height="40" as="geometry" />
        </mxCell>
        <mxCell id="XMlplPwFl1dJo5Iw-d_0-4" value="Attribute" style="ellipse;whiteSpace=wrap;html=1;align=center;fontStyle=4;" vertex="1" parent="1">
          <mxGeometry x="510" y="30" width="100" height="40" as="geometry" />
        </mxCell>
        <mxCell id="XMlplPwFl1dJo5Iw-d_0-5" value="Relationship" style="shape=rhombus;perimeter=rhombusPerimeter;whiteSpace=wrap;html=1;align=center;" vertex="1" parent="1">
          <mxGeometry x="300" y="360" width="120" height="60" as="geometry" />
        </mxCell>
        <mxCell id="XMlplPwFl1dJo5Iw-d_0-6" value="Entity" style="whiteSpace=wrap;html=1;align=center;" vertex="1" parent="1">
          <mxGeometry x="160" y="370" width="100" height="40" as="geometry" />
        </mxCell>
        <mxCell id="XMlplPwFl1dJo5Iw-d_0-7" value="Entity" style="whiteSpace=wrap;html=1;align=center;" vertex="1" parent="1">
          <mxGeometry x="460" y="370" width="100" height="40" as="geometry" />
        </mxCell>
        <mxCell id="XMlplPwFl1dJo5Iw-d_0-10" value="" style="endArrow=none;html=1;rounded=0;" edge="1" parent="1" source="XMlplPwFl1dJo5Iw-d_0-5" target="XMlplPwFl1dJo5Iw-d_0-7">
          <mxGeometry relative="1" as="geometry">
            <mxPoint x="420" y="420" as="sourcePoint" />
            <mxPoint x="490" y="420" as="targetPoint" />
          </mxGeometry>
        </mxCell>
        <mxCell id="XMlplPwFl1dJo5Iw-d_0-11" value="Relationship" style="shape=rhombus;perimeter=rhombusPerimeter;whiteSpace=wrap;html=1;align=center;" vertex="1" parent="1">
          <mxGeometry x="300" y="90" width="120" height="60" as="geometry" />
        </mxCell>
        <mxCell id="XMlplPwFl1dJo5Iw-d_0-12" value="Entity" style="whiteSpace=wrap;html=1;align=center;" vertex="1" parent="1">
          <mxGeometry x="160" y="100" width="100" height="40" as="geometry" />
        </mxCell>
        <mxCell id="XMlplPwFl1dJo5Iw-d_0-13" value="Entity" style="whiteSpace=wrap;html=1;align=center;" vertex="1" parent="1">
          <mxGeometry x="460" y="100" width="100" height="40" as="geometry" />
        </mxCell>
        <mxCell id="XMlplPwFl1dJo5Iw-d_0-14" value="" style="endArrow=none;html=1;rounded=0;" edge="1" parent="1" source="XMlplPwFl1dJo5Iw-d_0-12" target="XMlplPwFl1dJo5Iw-d_0-11">
          <mxGeometry relative="1" as="geometry">
            <mxPoint x="260" y="119.78999999999996" as="sourcePoint" />
            <mxPoint x="420" y="119.78999999999996" as="targetPoint" />
          </mxGeometry>
        </mxCell>
        <mxCell id="XMlplPwFl1dJo5Iw-d_0-26" value="1" style="edgeLabel;html=1;align=center;verticalAlign=middle;resizable=0;points=[];" vertex="1" connectable="0" parent="XMlplPwFl1dJo5Iw-d_0-14">
          <mxGeometry x="-0.0532" relative="1" as="geometry">
            <mxPoint x="-13" y="-10" as="offset" />
          </mxGeometry>
        </mxCell>
        <mxCell id="XMlplPwFl1dJo5Iw-d_0-15" value="" style="endArrow=none;html=1;rounded=0;" edge="1" parent="1" source="XMlplPwFl1dJo5Iw-d_0-11" target="XMlplPwFl1dJo5Iw-d_0-13">
          <mxGeometry relative="1" as="geometry">
            <mxPoint x="420" y="150" as="sourcePoint" />
            <mxPoint x="490" y="150" as="targetPoint" />
          </mxGeometry>
        </mxCell>
        <mxCell id="XMlplPwFl1dJo5Iw-d_0-28" value="1" style="edgeLabel;html=1;align=center;verticalAlign=middle;resizable=0;points=[];" vertex="1" connectable="0" parent="XMlplPwFl1dJo5Iw-d_0-15">
          <mxGeometry x="0.0106" y="1" relative="1" as="geometry">
            <mxPoint x="13" y="-9" as="offset" />
          </mxGeometry>
        </mxCell>
        <mxCell id="XMlplPwFl1dJo5Iw-d_0-16" value="Relationship" style="shape=rhombus;perimeter=rhombusPerimeter;whiteSpace=wrap;html=1;align=center;" vertex="1" parent="1">
          <mxGeometry x="300" y="180" width="120" height="60" as="geometry" />
        </mxCell>
        <mxCell id="XMlplPwFl1dJo5Iw-d_0-17" value="Entity" style="whiteSpace=wrap;html=1;align=center;" vertex="1" parent="1">
          <mxGeometry x="160" y="190" width="100" height="40" as="geometry" />
        </mxCell>
        <mxCell id="XMlplPwFl1dJo5Iw-d_0-18" value="Entity" style="whiteSpace=wrap;html=1;align=center;" vertex="1" parent="1">
          <mxGeometry x="460" y="190" width="100" height="40" as="geometry" />
        </mxCell>
        <mxCell id="XMlplPwFl1dJo5Iw-d_0-19" value="" style="endArrow=none;html=1;rounded=0;" edge="1" parent="1" source="XMlplPwFl1dJo5Iw-d_0-17" target="XMlplPwFl1dJo5Iw-d_0-16">
          <mxGeometry relative="1" as="geometry">
            <mxPoint x="260" y="209.78999999999996" as="sourcePoint" />
            <mxPoint x="420" y="209.78999999999996" as="targetPoint" />
          </mxGeometry>
        </mxCell>
        <mxCell id="XMlplPwFl1dJo5Iw-d_0-31" value="1" style="edgeLabel;html=1;align=center;verticalAlign=middle;resizable=0;points=[];" vertex="1" connectable="0" parent="XMlplPwFl1dJo5Iw-d_0-19">
          <mxGeometry x="-0.6064" relative="1" as="geometry">
            <mxPoint x="-2" y="-10" as="offset" />
          </mxGeometry>
        </mxCell>
        <mxCell id="XMlplPwFl1dJo5Iw-d_0-21" value="Relationship" style="shape=rhombus;perimeter=rhombusPerimeter;whiteSpace=wrap;html=1;align=center;" vertex="1" parent="1">
          <mxGeometry x="300" y="270" width="120" height="60" as="geometry" />
        </mxCell>
        <mxCell id="XMlplPwFl1dJo5Iw-d_0-22" value="Entity" style="whiteSpace=wrap;html=1;align=center;" vertex="1" parent="1">
          <mxGeometry x="160" y="280" width="100" height="40" as="geometry" />
        </mxCell>
        <mxCell id="XMlplPwFl1dJo5Iw-d_0-23" value="Entity" style="whiteSpace=wrap;html=1;align=center;" vertex="1" parent="1">
          <mxGeometry x="460" y="280" width="100" height="40" as="geometry" />
        </mxCell>
        <mxCell id="XMlplPwFl1dJo5Iw-d_0-25" value="" style="endArrow=none;html=1;rounded=0;" edge="1" parent="1" source="XMlplPwFl1dJo5Iw-d_0-21" target="XMlplPwFl1dJo5Iw-d_0-23">
          <mxGeometry relative="1" as="geometry">
            <mxPoint x="420" y="330" as="sourcePoint" />
            <mxPoint x="490" y="330" as="targetPoint" />
          </mxGeometry>
        </mxCell>
        <mxCell id="XMlplPwFl1dJo5Iw-d_0-34" value="1" style="edgeLabel;html=1;align=center;verticalAlign=middle;resizable=0;points=[];" vertex="1" connectable="0" parent="XMlplPwFl1dJo5Iw-d_0-25">
          <mxGeometry x="-0.117" y="-1" relative="1" as="geometry">
            <mxPoint x="-18" y="-11" as="offset" />
          </mxGeometry>
        </mxCell>
        <mxCell id="XMlplPwFl1dJo5Iw-d_0-29" value="" style="edgeStyle=entityRelationEdgeStyle;fontSize=12;html=1;endArrow=ERmany;rounded=0;" edge="1" parent="1" source="XMlplPwFl1dJo5Iw-d_0-16" target="XMlplPwFl1dJo5Iw-d_0-18">
          <mxGeometry width="100" height="100" relative="1" as="geometry">
            <mxPoint x="330" y="280" as="sourcePoint" />
            <mxPoint x="430" y="180" as="targetPoint" />
          </mxGeometry>
        </mxCell>
        <mxCell id="XMlplPwFl1dJo5Iw-d_0-30" value="N" style="edgeLabel;html=1;align=center;verticalAlign=middle;resizable=0;points=[];" vertex="1" connectable="0" parent="XMlplPwFl1dJo5Iw-d_0-29">
          <mxGeometry x="0.4734" y="1" relative="1" as="geometry">
            <mxPoint x="13" y="-9" as="offset" />
          </mxGeometry>
        </mxCell>
        <mxCell id="XMlplPwFl1dJo5Iw-d_0-32" value="" style="edgeStyle=entityRelationEdgeStyle;fontSize=12;html=1;endArrow=ERmany;rounded=0;" edge="1" parent="1" source="XMlplPwFl1dJo5Iw-d_0-21" target="XMlplPwFl1dJo5Iw-d_0-22">
          <mxGeometry width="100" height="100" relative="1" as="geometry">
            <mxPoint x="430" y="220" as="sourcePoint" />
            <mxPoint x="470" y="220" as="targetPoint" />
          </mxGeometry>
        </mxCell>
        <mxCell id="XMlplPwFl1dJo5Iw-d_0-33" value="N" style="edgeLabel;html=1;align=center;verticalAlign=middle;resizable=0;points=[];" vertex="1" connectable="0" parent="XMlplPwFl1dJo5Iw-d_0-32">
          <mxGeometry x="0.4734" y="1" relative="1" as="geometry">
            <mxPoint x="13" y="-9" as="offset" />
          </mxGeometry>
        </mxCell>
        <mxCell id="XMlplPwFl1dJo5Iw-d_0-36" value="" style="edgeStyle=entityRelationEdgeStyle;fontSize=12;html=1;endArrow=ERmany;rounded=0;" edge="1" parent="1" source="XMlplPwFl1dJo5Iw-d_0-5" target="XMlplPwFl1dJo5Iw-d_0-6">
          <mxGeometry width="100" height="100" relative="1" as="geometry">
            <mxPoint x="320" y="340" as="sourcePoint" />
            <mxPoint x="280" y="340" as="targetPoint" />
          </mxGeometry>
        </mxCell>
        <mxCell id="XMlplPwFl1dJo5Iw-d_0-37" value="N" style="edgeLabel;html=1;align=center;verticalAlign=middle;resizable=0;points=[];" vertex="1" connectable="0" parent="XMlplPwFl1dJo5Iw-d_0-36">
          <mxGeometry x="0.4734" y="1" relative="1" as="geometry">
            <mxPoint x="13" y="-9" as="offset" />
          </mxGeometry>
        </mxCell>
        <mxCell id="XMlplPwFl1dJo5Iw-d_0-38" value="" style="edgeStyle=entityRelationEdgeStyle;fontSize=12;html=1;endArrow=ERmany;rounded=0;" edge="1" parent="1" source="XMlplPwFl1dJo5Iw-d_0-5" target="XMlplPwFl1dJo5Iw-d_0-7">
          <mxGeometry width="100" height="100" relative="1" as="geometry">
            <mxPoint x="310" y="400" as="sourcePoint" />
            <mxPoint x="270" y="400" as="targetPoint" />
            <Array as="points">
              <mxPoint x="380" y="430" />
            </Array>
          </mxGeometry>
        </mxCell>
        <mxCell id="XMlplPwFl1dJo5Iw-d_0-39" value="M" style="edgeLabel;html=1;align=center;verticalAlign=middle;resizable=0;points=[];" vertex="1" connectable="0" parent="XMlplPwFl1dJo5Iw-d_0-38">
          <mxGeometry x="0.4734" y="1" relative="1" as="geometry">
            <mxPoint x="-15" y="-9" as="offset" />
          </mxGeometry>
        </mxCell>
        <mxCell id="XMlplPwFl1dJo5Iw-d_0-44" value="Entity" style="whiteSpace=wrap;html=1;align=center;" vertex="1" parent="1">
          <mxGeometry x="751" y="65" width="100" height="40" as="geometry" />
        </mxCell>
        <mxCell id="XMlplPwFl1dJo5Iw-d_0-45" value="Relationship" style="shape=rhombus;perimeter=rhombusPerimeter;whiteSpace=wrap;html=1;align=center;" vertex="1" parent="1">
          <mxGeometry x="871" y="55" width="120" height="60" as="geometry" />
        </mxCell>
        <mxCell id="XMlplPwFl1dJo5Iw-d_0-46" value="Attribute" style="ellipse;whiteSpace=wrap;html=1;align=center;" vertex="1" parent="1">
          <mxGeometry x="1015" y="65" width="100" height="40" as="geometry" />
        </mxCell>
        <mxCell id="XMlplPwFl1dJo5Iw-d_0-47" value="Attribute" style="ellipse;whiteSpace=wrap;html=1;align=center;fontStyle=4;" vertex="1" parent="1">
          <mxGeometry x="1131" y="65" width="100" height="40" as="geometry" />
        </mxCell>
        <mxCell id="XMlplPwFl1dJo5Iw-d_0-48" value="고객" style="whiteSpace=wrap;html=1;align=center;" vertex="1" parent="1">
          <mxGeometry x="940" y="300" width="100" height="40" as="geometry" />
        </mxCell>
        <mxCell id="XMlplPwFl1dJo5Iw-d_0-49" value="&lt;u&gt;&lt;font style=&quot;color: light-dark(rgb(255, 0, 0), rgb(237, 237, 237));&quot;&gt;고객코드&lt;/font&gt;&lt;/u&gt;" style="ellipse;whiteSpace=wrap;html=1;align=center;" vertex="1" parent="1">
          <mxGeometry x="830" y="260" width="100" height="40" as="geometry" />
        </mxCell>
        <mxCell id="XMlplPwFl1dJo5Iw-d_0-50" value="고객명" style="ellipse;whiteSpace=wrap;html=1;align=center;" vertex="1" parent="1">
          <mxGeometry x="940" y="240" width="100" height="40" as="geometry" />
        </mxCell>
        <mxCell id="XMlplPwFl1dJo5Iw-d_0-51" value="&lt;u&gt;&lt;font style=&quot;color: light-dark(rgb(255, 0, 0), rgb(237, 237, 237));&quot;&gt;전화번호&lt;/font&gt;&lt;/u&gt;" style="ellipse;whiteSpace=wrap;html=1;align=center;" vertex="1" parent="1">
          <mxGeometry x="1050" y="260" width="100" height="40" as="geometry" />
        </mxCell>
        <mxCell id="XMlplPwFl1dJo5Iw-d_0-52" value="&lt;u&gt;&lt;font style=&quot;color: light-dark(rgb(255, 0, 0), rgb(237, 237, 237));&quot;&gt;이메일&lt;/font&gt;&lt;/u&gt;" style="ellipse;whiteSpace=wrap;html=1;align=center;" vertex="1" parent="1">
          <mxGeometry x="1060" y="320" width="100" height="40" as="geometry" />
        </mxCell>
        <mxCell id="XMlplPwFl1dJo5Iw-d_0-53" value="주소" style="ellipse;whiteSpace=wrap;html=1;align=center;" vertex="1" parent="1">
          <mxGeometry x="800" y="320" width="100" height="40" as="geometry" />
        </mxCell>
        <mxCell id="XMlplPwFl1dJo5Iw-d_0-54" value="&lt;font style=&quot;color: light-dark(rgb(0, 0, 0), rgb(237, 237, 237));&quot;&gt;지역&lt;/font&gt;" style="ellipse;whiteSpace=wrap;html=1;align=center;" vertex="1" parent="1">
          <mxGeometry x="870" y="370" width="100" height="40" as="geometry" />
        </mxCell>
        <mxCell id="XMlplPwFl1dJo5Iw-d_0-55" value="가입일" style="ellipse;whiteSpace=wrap;html=1;align=center;" vertex="1" parent="1">
          <mxGeometry x="990" y="370" width="100" height="40" as="geometry" />
        </mxCell>
        <mxCell id="XMlplPwFl1dJo5Iw-d_0-56" value="" style="endArrow=none;html=1;rounded=0;" edge="1" parent="1" source="XMlplPwFl1dJo5Iw-d_0-50" target="XMlplPwFl1dJo5Iw-d_0-48">
          <mxGeometry relative="1" as="geometry">
            <mxPoint x="1010" y="350" as="sourcePoint" />
            <mxPoint x="1170" y="350" as="targetPoint" />
          </mxGeometry>
        </mxCell>
        <mxCell id="XMlplPwFl1dJo5Iw-d_0-57" value="" style="endArrow=none;html=1;rounded=0;" edge="1" parent="1" source="XMlplPwFl1dJo5Iw-d_0-51" target="XMlplPwFl1dJo5Iw-d_0-48">
          <mxGeometry relative="1" as="geometry">
            <mxPoint x="1000" y="280" as="sourcePoint" />
            <mxPoint x="1000" y="310" as="targetPoint" />
          </mxGeometry>
        </mxCell>
        <mxCell id="XMlplPwFl1dJo5Iw-d_0-58" value="" style="endArrow=none;html=1;rounded=0;" edge="1" parent="1" source="XMlplPwFl1dJo5Iw-d_0-52" target="XMlplPwFl1dJo5Iw-d_0-48">
          <mxGeometry relative="1" as="geometry">
            <mxPoint x="1010" y="290" as="sourcePoint" />
            <mxPoint x="1010" y="320" as="targetPoint" />
          </mxGeometry>
        </mxCell>
        <mxCell id="XMlplPwFl1dJo5Iw-d_0-59" value="" style="endArrow=none;html=1;rounded=0;" edge="1" parent="1" source="XMlplPwFl1dJo5Iw-d_0-48" target="XMlplPwFl1dJo5Iw-d_0-55">
          <mxGeometry relative="1" as="geometry">
            <mxPoint x="1020" y="300" as="sourcePoint" />
            <mxPoint x="1020" y="330" as="targetPoint" />
          </mxGeometry>
        </mxCell>
        <mxCell id="XMlplPwFl1dJo5Iw-d_0-60" value="" style="endArrow=none;html=1;rounded=0;" edge="1" parent="1" source="XMlplPwFl1dJo5Iw-d_0-48" target="XMlplPwFl1dJo5Iw-d_0-54">
          <mxGeometry relative="1" as="geometry">
            <mxPoint x="1030" y="310" as="sourcePoint" />
            <mxPoint x="1030" y="340" as="targetPoint" />
          </mxGeometry>
        </mxCell>
        <mxCell id="XMlplPwFl1dJo5Iw-d_0-61" value="" style="endArrow=none;html=1;rounded=0;" edge="1" parent="1" source="XMlplPwFl1dJo5Iw-d_0-48" target="XMlplPwFl1dJo5Iw-d_0-53">
          <mxGeometry relative="1" as="geometry">
            <mxPoint x="1040" y="320" as="sourcePoint" />
            <mxPoint x="1040" y="350" as="targetPoint" />
          </mxGeometry>
        </mxCell>
        <mxCell id="XMlplPwFl1dJo5Iw-d_0-62" value="" style="endArrow=none;html=1;rounded=0;" edge="1" parent="1" source="XMlplPwFl1dJo5Iw-d_0-48" target="XMlplPwFl1dJo5Iw-d_0-49">
          <mxGeometry relative="1" as="geometry">
            <mxPoint x="1050" y="330" as="sourcePoint" />
            <mxPoint x="1050" y="360" as="targetPoint" />
          </mxGeometry>
        </mxCell>
        <mxCell id="XMlplPwFl1dJo5Iw-d_0-63" value="상세주소" style="ellipse;whiteSpace=wrap;html=1;align=center;" vertex="1" parent="1">
          <mxGeometry x="680" y="350" width="100" height="40" as="geometry" />
        </mxCell>
        <mxCell id="XMlplPwFl1dJo5Iw-d_0-64" value="기본주소" style="ellipse;whiteSpace=wrap;html=1;align=center;" vertex="1" parent="1">
          <mxGeometry x="680" y="300" width="100" height="40" as="geometry" />
        </mxCell>
        <mxCell id="XMlplPwFl1dJo5Iw-d_0-65" value="" style="endArrow=none;html=1;rounded=0;" edge="1" parent="1" source="XMlplPwFl1dJo5Iw-d_0-53" target="XMlplPwFl1dJo5Iw-d_0-64">
          <mxGeometry relative="1" as="geometry">
            <mxPoint x="950" y="338" as="sourcePoint" />
            <mxPoint x="926" y="342" as="targetPoint" />
          </mxGeometry>
        </mxCell>
        <mxCell id="XMlplPwFl1dJo5Iw-d_0-66" value="" style="endArrow=none;html=1;rounded=0;" edge="1" parent="1" source="XMlplPwFl1dJo5Iw-d_0-63" target="XMlplPwFl1dJo5Iw-d_0-53">
          <mxGeometry relative="1" as="geometry">
            <mxPoint x="960" y="348" as="sourcePoint" />
            <mxPoint x="936" y="352" as="targetPoint" />
          </mxGeometry>
        </mxCell>
      </root>
    </mxGraphModel>
  </diagram>
</mxfile>
